# xmcd
#
# Track frame offsets:
#	150
#	13372
#	23250
#	44175
#	56775
#	74850
#	90300
#	101475
#	119775
#	132525
#	135445
#	155550
#
# Disc length: 2266 seconds
# Revision: 2
# Processed by: cddbd v1.5.2PL0 Copyright (c) Steve Scherf et al.
# Submitted via: dBpowerAMP V12.0
#
DISCID=b208d80c
DTITLE=Various Artist - God Loves Country Music
DYEAR=2007
DGENRE=Religious
TTITLE0=Colin Raye - When You Say Your Prayers
TTITLE1=John Anderson - Swoop Down Sweet Jesus
TTITLE2=Cindy Walker - From A Distance
TTITLE3=Marty Raybon - Nothing But The Blood
TTITLE4=Bill Sprouse - God Loves Country Music
TTITLE5=Michael Anthony - Three Wooden Crosses
TTITLE6=Patti Shauer - I Thank You Jesus
TTITLE7=George Highfill - Not Enough
TTITLE8=Boxcar Willie - Peace In The Valley
TTITLE9=Bonnie Bramlett - His Name Is Jesus
TTITLE10=Bonnie Bramlett - I Keep Falling In Love With Him
TTITLE11=George Highfill - His Name Is Wonderland
EXTD=
EXTT0=
EXTT1=
EXTT2=
EXTT3=
EXTT4=
EXTT5=
EXTT6=
EXTT7=
EXTT8=
EXTT9=
EXTT10=
EXTT11=
PLAYORDER=
